<?xml version="1.0" encoding="UTF-8"?><svg id="Objecten" xmlns="http://www.w3.org/2000/svg" xmlns:xlink="http://www.w3.org/1999/xlink" viewBox="0 0 348.3 230.4"><defs><style>.cls-1{fill:#ff635a;}.cls-2{fill:#7fd6aa;}.cls-3{fill:#293347;}.cls-4{filter:url(#drop-shadow-36);}</style><filter id="drop-shadow-36" filterUnits="userSpaceOnUse"><feOffset dx="-5" dy="-5"/><feGaussianBlur result="blur" stdDeviation="0"/><feFlood flood-color="#293347" flood-opacity="1"/><feComposite in2="blur" operator="in"/><feComposite in="SourceGraphic"/></filter></defs><g id="catgrass" class="cls-4"><g><path class="cls-1" d="M123.61,152.01l3.73,8.76,7.71,.21,4.05,17.02s16.21,2.56,31.19,2.68c14.98,.13,32.9-2.4,32.9-2.4l2.49-18.24,9.2-.93,1.24-7.93s-19.9-2.99-43.02-2.78c-23.12,.21-49.48,3.61-49.48,3.61Z"/><path class="cls-3" d="M122.96,152.39c1.24,2.92,2.48,5.84,3.73,8.76,.1,.24,.41,.37,.65,.37,2.57,.07,5.14,.14,7.71,.21l-.72-.55c1.35,5.67,2.7,11.35,4.05,17.02,.05,.23,.28,.49,.52,.52,7.68,1.21,15.45,1.99,23.2,2.43,11.15,.64,22.3,0,33.39-1.19,2.63-.28,5.27-.58,7.89-.95,.23-.03,.49-.3,.52-.52,.83-6.08,1.66-12.16,2.49-18.24l-.72,.55c3.07-.31,6.13-.62,9.2-.93,.3-.03,.67-.21,.72-.55,.41-2.64,.83-5.29,1.24-7.93,.06-.36-.09-.86-.52-.92-10.55-1.58-21.28-2.33-31.93-2.67-16.49-.53-32.99,.54-49.4,2.2-3.8,.38-7.59,.79-11.38,1.27-.94,.12-.96,1.62,0,1.5,10.12-1.3,20.32-2.21,30.5-2.86,16.74-1.07,33.46-.92,50.16,.66,3.89,.37,7.78,.77,11.64,1.35l-.52-.92c-.41,2.64-.83,5.29-1.24,7.93l.72-.55c-3.07,.31-6.13,.62-9.2,.93-.29,.03-.68,.21-.72,.55-.83,6.08-1.66,12.16-2.49,18.24l.52-.52c-6.95,.98-14.09,1.63-21.13,2.04-11.37,.66-22.7,.1-34.01-1.2-2.86-.33-5.71-.68-8.55-1.13l.52,.52c-1.35-5.67-2.7-11.35-4.05-17.02-.08-.33-.4-.54-.72-.55-2.57-.07-5.14-.14-7.71-.21l.65,.37c-1.24-2.92-2.48-5.84-3.73-8.76-.38-.89-1.67-.12-1.3,.76Z"/></g><path class="cls-3" d="M134.95,154c.48,.17-1.08-.46-1.08-.46,0,0-.06-.54,0-.7,.33-.97,1.71-1.07,3.49-1.48,1.51-.35,3.14,1.09,4.45,.59,1.52-.58,1.1-2.12,2.57-2.75,1.24-.53,3.31,.6,4.62,0,1.18-.54,1.37-1.55,2.57-2.06,1.09-.47,2.21-.18,3.43-.29,1.45-.14,2.02-1.11,3.43-1.28,1.31-.15,2.36,.97,3.42,1.28,2.15,.61,4.71,.56,6.85,1.18,1.56,.45,3.21,1.33,4.96,1.47,.25,.02,11.73-1.24,11.82-1.28,1.19-.45,1.46-1.53,2.91-1.86,1.26-.29,3.05,.68,4.11,.98,1.62,.47,3.68,.47,5.14,.88,.66,.19,2.46,2.3,3.43,2.85,1.6,.92,5.04,.64,6.84,.98,.12,.02,.15,.12,.18,.2,.12,.35-.93,.82-1.37,1.08-3.84,2.2-13.43,3.36-31.34,4.02-24.75,.91-41.32-3.66-40.41-3.34Z"/><g><path class="cls-2" d="M215.35,102.59s-13.5,10.57-21.26,22.97c-7.76,12.4-9.77,26.64-9.77,26.64l6.84,.52s.67-13.32,6.72-25.85c6.04-12.53,17.47-24.28,17.47-24.28Z"/><path class="cls-3" d="M214.82,102.06c-5.25,4.12-10.11,8.89-14.48,13.93-3.63,4.18-6.87,8.68-9.4,13.61-2.37,4.62-4.2,9.51-5.59,14.5-.72,2.59-1.38,5.23-1.76,7.9-.07,.51,.19,.91,.72,.95,2.28,.17,4.56,.35,6.84,.52,.42,.03,.73-.37,.75-.75,.35-6.65,1.96-13.42,4.2-19.67,3.32-9.26,9.03-17.48,15.33-24.95,1.43-1.7,2.9-3.39,4.45-4.98,.67-.69-.39-1.75-1.06-1.06-4.32,4.45-8.24,9.4-11.74,14.52-5.94,8.66-9.86,18.2-11.7,28.54-.45,2.51-.84,5.06-.97,7.61l.75-.75c-2.28-.17-4.56-.35-6.84-.52l.72,.95c.99-6.97,3.32-13.98,6.34-20.31,4.45-9.34,11.35-17.19,18.91-24.15,1.81-1.66,3.65-3.31,5.59-4.82,.76-.6-.31-1.65-1.06-1.06Z"/></g><g><path class="cls-2" d="M223.06,79.6s-19.58,15.33-30.83,33.31c-11.25,17.99-14.17,38.63-14.17,38.63l9.92,.76s.97-19.32,9.75-37.49c8.77-18.18,25.33-35.21,25.33-35.21Z"/><path class="cls-3" d="M222.53,79.07c-7.58,5.94-14.58,12.82-20.88,20.07-5.32,6.12-10.07,12.69-13.76,19.92-3.4,6.67-6.04,13.73-8.04,20.94-1.03,3.72-1.97,7.51-2.52,11.34-.07,.51,.19,.91,.72,.95,3.31,.25,6.62,.51,9.92,.76,.42,.03,.73-.37,.75-.75,.49-9.65,2.83-19.49,6.08-28.56,4.82-13.46,13.09-25.4,22.24-36.28,2.11-2.51,4.26-4.99,6.54-7.34,.67-.69-.39-1.75-1.06-1.06-6.31,6.49-12.01,13.72-17.11,21.19-4.28,6.26-8.04,12.85-10.85,19.9-2.72,6.81-4.65,13.94-5.93,21.15-.65,3.62-1.21,7.31-1.4,10.99l.75-.75c-3.31-.25-6.62-.51-9.92-.76l.72,.95c.43-2.99,1.12-5.96,1.87-8.88,1.78-6.97,4.14-13.82,7.22-20.33,6.47-13.73,16.6-25.26,27.69-35.46,2.6-2.39,5.25-4.75,8.04-6.93,.76-.59-.31-1.65-1.06-1.06Z"/></g><g><path class="cls-2" d="M153.89,103.03s13.5,10.57,21.26,22.97c7.76,12.4,9.77,26.64,9.77,26.64l-6.84,.52s-.68-13.32-6.72-25.85c-6.04-12.53-17.47-24.28-17.47-24.28Z"/><path class="cls-3" d="M153.36,103.56c5.1,4,9.82,8.62,14.09,13.49,3.65,4.16,6.91,8.63,9.45,13.55,2.38,4.61,4.2,9.5,5.58,14.49,.7,2.54,1.34,5.13,1.72,7.75l.72-.95c-2.28,.17-4.56,.35-6.84,.52l.75,.75c-.36-6.78-1.97-13.7-4.25-20.07-3.36-9.38-9.07-17.68-15.42-25.27-1.52-1.82-3.08-3.62-4.74-5.33-.67-.69-1.73,.37-1.06,1.06,4.24,4.36,8.07,9.2,11.51,14.21,2.97,4.34,5.62,8.91,7.55,13.81,1.81,4.58,3.1,9.37,3.97,14.22,.44,2.43,.82,4.9,.95,7.37,.02,.38,.33,.78,.75,.75,2.28-.17,4.56-.35,6.84-.52,.53-.04,.8-.44,.72-.95-1-7.04-3.38-14.07-6.4-20.47-4.48-9.48-11.48-17.48-19.13-24.54-1.84-1.7-3.72-3.38-5.69-4.92-.75-.59-1.82,.47-1.06,1.06Z"/></g><g><path class="cls-2" d="M221.03,86.71s-16.79,13.57-26.44,29.49c-9.65,15.92-12.15,34.2-12.15,34.2l8.51,.67s.83-17.1,8.36-33.19c7.52-16.09,21.73-31.17,21.73-31.17Z"/><path class="cls-3" d="M220.5,86.18c-6.57,5.32-12.62,11.47-18.05,17.94-4.57,5.45-8.64,11.3-11.78,17.7-2.9,5.91-5.14,12.14-6.84,18.49-.87,3.25-1.66,6.56-2.12,9.9-.07,.51,.19,.91,.72,.95,2.84,.22,5.67,.45,8.51,.67,.42,.03,.73-.37,.75-.75,.42-8.4,2.36-16.95,5.07-24.88,4.08-11.93,11.14-22.57,19.05-32.3,1.85-2.27,3.74-4.53,5.75-6.66,.66-.7-.4-1.77-1.06-1.06-5.51,5.86-10.47,12.36-14.89,19.07-3.65,5.54-6.84,11.37-9.21,17.57-2.31,6.02-3.94,12.29-5.02,18.64-.54,3.17-1.02,6.4-1.18,9.62l.75-.75c-2.84-.22-5.67-.45-8.51-.67l.72,.95c1.21-8.73,4.01-17.51,7.62-25.51,5.51-12.2,14.21-22.52,23.85-31.68,2.24-2.13,4.52-4.23,6.93-6.17,.75-.61-.32-1.66-1.06-1.06Z"/></g><g><path class="cls-2" d="M181.73,102.84s-13.5,10.57-21.26,22.97c-7.76,12.4-9.78,26.64-9.78,26.64l6.84,.52s.67-13.32,6.72-25.85c6.04-12.53,17.47-24.28,17.47-24.28Z"/><path class="cls-3" d="M181.2,102.31c-5.25,4.12-10.11,8.89-14.48,13.93-3.63,4.18-6.87,8.68-9.4,13.61-2.37,4.62-4.2,9.51-5.59,14.5-.72,2.59-1.38,5.23-1.76,7.9-.07,.51,.19,.91,.72,.95,2.28,.17,4.56,.35,6.84,.52,.42,.03,.73-.37,.75-.75,.35-6.65,1.96-13.42,4.2-19.67,3.32-9.26,9.03-17.48,15.33-24.95,1.43-1.7,2.9-3.39,4.45-4.98,.67-.69-.39-1.75-1.06-1.06-4.32,4.45-8.24,9.4-11.74,14.52-5.94,8.66-9.86,18.2-11.7,28.54-.45,2.51-.84,5.06-.97,7.61l.75-.75c-2.28-.17-4.56-.35-6.84-.52l.72,.95c1-6.97,3.33-13.98,6.35-20.31,4.45-9.34,11.35-17.19,18.91-24.15,1.81-1.66,3.65-3.31,5.59-4.82,.76-.6-.31-1.65-1.06-1.06Z"/></g><g><g><path class="cls-2" d="M173.34,74.1s-13.3,18.45-17.58,37.91c-4.29,19.46,.43,39.94,.43,39.94l9.86-1.12s-6.12-18.83-4.29-38.01c1.82-19.18,11.59-38.72,11.59-38.72Z"/><path class="cls-3" d="M172.69,73.72c-5.18,7.19-9.45,15.24-12.87,23.39-2.94,7-5.07,14.25-5.98,21.8-.88,7.27-.8,14.65-.08,21.93,.37,3.78,.86,7.6,1.71,11.3,.07,.29,.41,.59,.72,.55,3.29-.37,6.57-.75,9.86-1.12,.46-.05,.89-.44,.72-.95-2.84-8.79-4.26-18.29-4.56-27.49-.44-13.73,2.95-27.1,7.93-39.81,1.17-2.99,2.41-5.98,3.85-8.85,.43-.86-.86-1.62-1.3-.76-3.91,7.83-6.9,16.29-9.09,24.76-1.85,7.16-2.96,14.48-2.94,21.89,.01,6.84,.8,13.68,2.12,20.39,.68,3.45,1.45,6.92,2.54,10.27l.72-.95c-3.29,.37-6.57,.75-9.86,1.12l.72,.55c-2.18-9.51-2.68-19.72-1.91-29.42,1.14-14.21,6.63-27.48,13.78-39.68,1.63-2.78,3.33-5.55,5.21-8.18,.56-.78-.74-1.53-1.3-.76Z"/></g><g><path class="cls-2" d="M115.12,109.62s16.9,7.68,28.91,18.2c12.02,10.52,19.17,23.89,19.17,23.89l-6.41,1.78s-5.52-12.73-15.94-23.7c-10.42-10.97-25.74-20.18-25.74-20.18Z"/><path class="cls-3" d="M114.74,110.27c6.48,2.95,12.74,6.55,18.67,10.48,9.82,6.51,18.09,14.65,24.77,24.35,1.55,2.26,3.07,4.57,4.37,6.99l.45-1.1c-2.14,.59-4.27,1.19-6.41,1.78l.85,.34c-2.87-6.6-6.95-12.83-11.39-18.46-6.72-8.51-15.26-15.4-24.16-21.51-2.1-1.44-4.22-2.86-6.4-4.17-.83-.5-1.58,.8-.76,1.3,5.79,3.49,11.33,7.5,16.56,11.78,8.58,7.02,15.72,15.29,21.26,24.91,1.29,2.25,2.55,4.54,3.59,6.92,.13,.3,.56,.43,.85,.34,2.14-.59,4.27-1.19,6.41-1.78,.48-.13,.68-.68,.45-1.1-3.55-6.63-8.3-12.82-13.4-18.31-7.8-8.4-17.43-14.82-27.46-20.26-2.46-1.33-4.94-2.63-7.48-3.79-.87-.4-1.64,.9-.76,1.3Z"/></g><g><path class="cls-2" d="M173.97,81.34s-11.25,16.23-14.75,33.41c-3.49,17.17,.76,35.28,.76,35.28l8.46-.94s-5.44-16.66-4.06-33.6c1.38-16.94,9.58-34.15,9.58-34.15Z"/><path class="cls-3" d="M173.32,80.96c-4.42,6.4-8.02,13.53-10.89,20.74-2.49,6.27-4.24,12.77-4.93,19.49-.64,6.32-.5,12.72,.18,19.03,.36,3.35,.81,6.72,1.58,10.01,.07,.29,.41,.59,.72,.55,2.82-.31,5.64-.63,8.46-.94,.46-.05,.89-.44,.72-.95-2.48-7.62-3.77-15.83-4.16-23.81-.59-12.21,2.16-24.13,6.38-35.52,.98-2.65,2.02-5.29,3.23-7.84,.41-.87-.88-1.63-1.3-.76-3.34,7.03-5.86,14.6-7.65,22.16-1.52,6.37-2.36,12.87-2.25,19.43,.11,5.93,.84,11.85,2.02,17.66,.62,3.05,1.32,6.11,2.28,9.08l.72-.95c-2.82,.31-5.64,.63-8.46,.94l.72,.55c-1.96-8.38-2.49-17.35-1.93-25.9,.82-12.48,5.38-24.21,11.46-35.03,1.37-2.44,2.79-4.87,4.39-7.17,.55-.8-.75-1.55-1.3-.76Z"/></g></g><g><g><path class="cls-2" d="M129.34,103.99s15.29,9.24,25.21,20.82c9.93,11.59,14.49,25.52,14.49,25.52l-6.69,1.15s-3.06-13.15-11.31-25.02c-8.26-11.87-21.7-22.47-21.7-22.47Z"/><path class="cls-3" d="M128.96,104.64c5.78,3.5,11.26,7.63,16.35,12.05,4.37,3.8,8.43,7.94,11.85,12.62,3.16,4.32,5.84,8.99,8.12,13.83,1.13,2.4,2.21,4.86,3.04,7.39l.52-.92c-2.23,.38-4.46,.77-6.69,1.15l.92,.52c-1.59-6.77-4.45-13.43-7.83-19.48-5.02-8.99-12.13-16.62-19.72-23.5-1.84-1.66-3.71-3.31-5.65-4.85-.75-.59-1.82,.46-1.06,1.06,5,3.95,9.68,8.41,14.02,13.07,7.31,7.87,12.89,16.82,16.57,26.93,.85,2.34,1.66,4.73,2.23,7.16,.1,.42,.54,.59,.92,.52,2.23-.38,4.46-.77,6.69-1.15,.39-.07,.64-.57,.52-.92-2.3-7-5.92-13.79-10.08-19.84-6.18-9-14.49-16.22-23.34-22.52-2.16-1.54-4.36-3.05-6.63-4.43-.83-.5-1.58,.8-.76,1.3Z"/></g><g><path class="cls-2" d="M117.55,81.9s22.17,13.4,36.57,30.2c14.39,16.8,21.01,37.01,21.01,37.01l-9.71,1.67s-4.44-19.07-16.41-36.28c-11.97-17.22-31.46-32.59-31.46-32.59Z"/><path class="cls-3" d="M117.17,82.55c8.47,5.13,16.51,11.19,23.97,17.69,6.36,5.54,12.25,11.6,17.21,18.43,4.51,6.22,8.36,12.93,11.63,19.88,1.64,3.5,3.22,7.08,4.43,10.75l.52-.92c-3.24,.56-6.47,1.11-9.71,1.67l.92,.52c-2.28-9.75-6.41-19.34-11.26-28.05-7.29-13.1-17.64-24.21-28.7-34.21-2.64-2.38-5.31-4.74-8.11-6.94-.75-.59-1.82,.46-1.06,1.06,7.27,5.74,14.06,12.21,20.35,18.99,5.39,5.81,10.36,12,14.45,18.8,3.86,6.41,7.04,13.24,9.6,20.26,1.25,3.43,2.44,6.93,3.27,10.49,.1,.42,.54,.59,.92,.52,3.24-.56,6.47-1.11,9.71-1.67,.39-.07,.64-.57,.52-.92-.98-2.97-2.21-5.87-3.48-8.72-3.05-6.85-6.67-13.46-10.89-19.66-8.98-13.19-21.14-23.75-34.07-32.95-3.09-2.2-6.23-4.36-9.48-6.33-.83-.5-1.58,.8-.76,1.3Z"/></g><g><path class="cls-2" d="M190.36,98.77s-11.48,11.72-16.95,24.74c-5.46,13.01-4.9,27.32-4.9,27.32l6.88-.11s-1.73-13.27,2.01-26.26c3.74-12.99,12.95-25.69,12.95-25.69Z"/><path class="cls-3" d="M189.83,98.24c-4.41,4.51-8.34,9.65-11.74,14.95-2.89,4.5-5.33,9.28-6.97,14.39-1.58,4.91-2.52,10.01-3.01,15.14-.26,2.68-.44,5.41-.33,8.11,.02,.4,.33,.76,.75,.75,2.29-.04,4.58-.07,6.88-.11,.37,0,.8-.34,.75-.75-.84-6.56-.52-13.49,.6-19.99,1.63-9.37,5.75-18.06,10.68-26.12,1.13-1.85,2.3-3.7,3.58-5.46,.57-.78-.73-1.53-1.3-.76-3.52,4.87-6.54,10.2-9.09,15.63-2.17,4.63-3.94,9.43-4.97,14.45-.98,4.76-1.4,9.65-1.4,14.51,0,2.57,.07,5.18,.4,7.73l.75-.75c-2.29,.04-4.58,.07-6.88,.11l.75,.75c-.26-6.91,.78-14.08,2.65-20.72,2.69-9.55,8.13-18.02,14.4-25.62,1.46-1.78,2.97-3.54,4.58-5.18,.68-.69-.38-1.75-1.06-1.06Z"/></g><g><path class="cls-2" d="M120.84,88.76s19.1,11.91,31.53,26.81c12.44,14.9,18.21,32.8,18.21,32.8l-8.32,1.45s-3.9-16.88-14.26-32.15c-10.36-15.27-27.16-28.92-27.16-28.92Z"/><path class="cls-3" d="M120.47,89.41c7.36,4.6,14.33,10.02,20.77,15.83,5.51,4.96,10.6,10.37,14.88,16.45,3.84,5.47,7.12,11.33,9.92,17.4,1.42,3.09,2.79,6.25,3.84,9.49l.52-.92c-2.77,.48-5.55,.97-8.32,1.45l.92,.52c-2-8.59-5.56-17.05-9.76-24.77-6.29-11.57-15.22-21.47-24.81-30.4-2.29-2.13-4.62-4.24-7.05-6.22-.74-.6-1.81,.45-1.06,1.06,6.28,5.11,12.13,10.84,17.55,16.84,4.74,5.25,9.09,10.84,12.66,16.96,3.27,5.6,5.97,11.54,8.16,17.64,1.09,3.04,2.13,6.14,2.86,9.29,.1,.42,.54,.59,.92,.52,2.77-.48,5.55-.97,8.32-1.45,.39-.07,.64-.57,.52-.92-2.84-8.78-7.28-17.29-12.35-24.96-7.74-11.71-18.25-21.16-29.5-29.42-2.69-1.97-5.41-3.91-8.24-5.67-.82-.51-1.57,.78-.76,1.3Z"/></g></g><g><g><path class="cls-2" d="M222.54,111.05s-17.12,7.42-29.44,17.76c-12.33,10.34-19.87,23.59-19.87,23.59l6.36,1.88s5.89-12.65,16.63-23.45c10.74-10.81,26.32-19.78,26.32-19.78Z"/><path class="cls-3" d="M222.16,110.4c-6.81,2.96-13.4,6.61-19.64,10.62-9.92,6.39-18.33,14.42-25.27,23.95-1.65,2.27-3.28,4.6-4.67,7.05-.24,.43-.02,.96,.45,1.1,2.12,.63,4.24,1.25,6.36,1.88,.29,.09,.71-.05,.85-.34,3.02-6.46,7.19-12.57,11.74-18.03,6.89-8.28,15.48-14.95,24.43-20.86,2.14-1.41,4.3-2.8,6.51-4.08,.84-.48,.08-1.78-.76-1.3-5.95,3.43-11.64,7.4-17.05,11.63-8.9,6.96-16.39,15.23-22.3,24.87-1.39,2.27-2.75,4.59-3.88,7.01l.85-.34c-2.12-.63-4.24-1.25-6.36-1.88l.45,1.1c3.7-6.49,8.56-12.52,13.76-17.86,8.02-8.23,17.79-14.44,27.96-19.69,2.41-1.24,4.84-2.46,7.33-3.54,.88-.38,.12-1.68-.76-1.3Z"/></g><g><path class="cls-2" d="M239,90.55s-24.82,10.76-42.7,25.76c-17.88,14.99-28.82,34.22-28.82,34.22l9.22,2.73s8.55-18.34,24.12-34.01c15.57-15.67,38.18-28.69,38.18-28.69Z"/><path class="cls-3" d="M238.62,89.9c-9.88,4.29-19.44,9.58-28.48,15.41-7.49,4.83-14.6,10.22-20.97,16.47-5.73,5.61-10.92,11.77-15.64,18.25-2.37,3.26-4.7,6.61-6.7,10.12-.24,.43-.02,.96,.45,1.1,3.07,.91,6.15,1.82,9.22,2.73,.29,.09,.71-.05,.85-.34,4.37-9.36,10.43-18.2,16.99-26.12,10.04-12.11,22.61-21.85,35.69-30.47,3.06-2.02,6.16-4.01,9.34-5.84,.84-.48,.08-1.78-.76-1.3-8.62,4.97-16.88,10.72-24.7,16.85-6.65,5.21-12.95,10.85-18.52,17.21-5.09,5.82-9.65,12.12-13.7,18.71-2.03,3.3-4,6.68-5.64,10.19l.85-.34c-3.07-.91-6.15-1.82-9.22-2.73l.45,1.1c5.35-9.39,12.37-18.09,19.87-25.82,11.67-12.03,25.93-21.09,40.75-28.75,3.49-1.8,7.02-3.57,10.63-5.13,.88-.38,.12-1.68-.76-1.3Z"/></g><g><path class="cls-2" d="M163.4,99.1s8.79,12.86,11.35,26.32c2.56,13.46-1.12,27.53-1.12,27.53l-6.77-.87s4.6-12.92,3.73-26.16c-.86-13.24-7.2-26.81-7.2-26.81Z"/><path class="cls-3" d="M162.75,99.48c3.38,4.96,6.15,10.48,8.31,16.06,1.89,4.88,3.21,9.93,3.64,15.16,.4,4.85,.19,9.75-.43,14.58-.32,2.5-.73,5.03-1.36,7.48l.72-.55c-2.26-.29-4.51-.58-6.77-.87l.72,.95c2.12-5.98,3.28-12.47,3.72-18.78,.67-9.72-1.4-19.28-4.69-28.39-.78-2.16-1.61-4.31-2.58-6.39-.41-.87-1.7-.11-1.3,.76,2.52,5.41,4.37,11.25,5.68,17.07,2.15,9.57,1.78,19.19-.43,28.71-.52,2.23-1.09,4.46-1.86,6.62-.18,.51,.28,.89,.72,.95,2.26,.29,4.51,.58,6.77,.87,.32,.04,.65-.26,.72-.55,1.72-6.64,2.32-13.81,1.97-20.64-.5-9.84-3.95-19.1-8.63-27.69-1.13-2.08-2.32-4.15-3.65-6.1-.54-.79-1.84-.04-1.3,.76Z"/></g><g><path class="cls-2" d="M234.25,96.96s-21.46,9.64-36.99,22.98c-15.53,13.34-25.13,30.37-25.13,30.37l7.9,2.36s7.54-16.24,21.09-30.17c13.56-13.93,33.13-25.54,33.13-25.54Z"/><path class="cls-3" d="M233.87,96.31c-8.62,3.88-16.95,8.64-24.82,13.87-6.51,4.33-12.67,9.15-18.2,14.7-4.95,4.98-9.45,10.41-13.54,16.12-2.06,2.88-4.09,5.84-5.84,8.93-.24,.43-.02,.96,.45,1.1,2.63,.79,5.26,1.57,7.9,2.36,.29,.09,.71-.05,.85-.34,3.85-8.28,9.14-16.12,14.89-23.17,8.71-10.68,19.59-19.35,30.95-27.04,2.66-1.8,5.35-3.58,8.12-5.22,.83-.49,.08-1.79-.76-1.3-7.52,4.47-14.72,9.62-21.54,15.1-5.81,4.67-11.3,9.72-16.15,15.39-4.39,5.13-8.33,10.66-11.84,16.43-1.78,2.93-3.52,5.94-4.97,9.05l.85-.34c-2.63-.79-5.26-1.57-7.9-2.36l.45,1.1c4.66-8.25,10.73-15.93,17.23-22.78,10.12-10.66,22.47-18.79,35.38-25.68,3.03-1.62,6.1-3.2,9.24-4.61,.88-.4,.12-1.69-.76-1.3Z"/></g></g></g></svg>