<?xml version="1.0" encoding="UTF-8"?><svg id="Objecten" xmlns="http://www.w3.org/2000/svg" viewBox="0 0 348.3 230.4"><defs><style>.cls-1{fill:#80e3a3;}.cls-1,.cls-2,.cls-3{stroke:#293347;stroke-linejoin:round;stroke-width:3.16px;}.cls-2{fill:#e0a4ff;}.cls-3{fill:#faea59;}</style></defs><path class="cls-3" d="M99.74,27.62H248.56c7.28,0,13.18,5.96,13.18,13.32V189.47c0,7.36-5.9,13.32-13.18,13.32H99.74c-7.28,0-13.18-5.96-13.18-13.32V40.93c0-7.36,5.9-13.32,13.18-13.32Z"/><path class="cls-1" d="M113.83,51.3l113.63-5.96c5.56-.29,10.3,4.03,10.59,9.64l5.94,113.41c.29,5.62-3.97,10.41-9.53,10.7l-113.63,5.96c-5.56,.29-10.3-4.03-10.59-9.64l-5.94-113.41c-.29-5.62,3.97-10.41,9.53-10.7Z"/><path class="cls-2" d="M214.17,77.12l-25.61,23.21-30.58,.06-24.01-22.87s-.09,35.18-.09,35.48c0,22.25,18.03,40.28,40.28,40.28s39.82-17.61,40.24-39.49l-.25-36.67Z"/></svg>