<svg width="396" height="100" viewBox="0 0 396 100" fill="none" xmlns="http://www.w3.org/2000/svg">
<g clip-path="url(#clip0_120_3857)">
<rect width="396" height="100" fill="#293347"/>
<path d="M45 68V33H55V38H60V43H65V38H70V33H80V68H70V48H65V58H60V48H55V68H45ZM88 68V63H83V48H88V43H113V48H118V58H93V63H113V68H88ZM93 53H108V48H93V53ZM126 68V63H121V48H126V43H151V48H156V63H151V68H126ZM131 63H146V48H131V63ZM169 63H174V68H164V63H159V43H169V63ZM179 43V63H174V43H179ZM194 43V63H189V68H179V63H184V43H194ZM202 68V63H212V38H207V33H222V63H232V68H202ZM240 68V63H235V58H240V53H260V48H240V43H265V48H270V68H240ZM245 63H260V58H245V63ZM273 68V43H303V48H308V68H298V48H283V68H273ZM316 68V63H311V48H316V43H336V33H346V68H316ZM321 63H336V48H321V63Z" fill="#FFB5C6"/>
</g>
<defs>
<clipPath id="clip0_120_3857">
<rect width="396" height="100" fill="white"/>
</clipPath>
</defs>
</svg>
